<svg width="848" height="807" viewBox="0 0 848 807" fill="none" xmlns="http://www.w3.org/2000/svg">
<rect width="848" height="807" fill="#464646"/>
<path d="M331.087 596L311.399 667.189H306.427L286.942 603.099L267.153 667.189H262.383L243 596H247.871L264.92 660.8L284.506 596H289.581L308.964 661.206L326.114 596H331.087ZM392.049 635.955C392.049 638.389 391.982 640.214 391.846 641.431H344.25C344.386 646.366 345.468 650.524 347.498 653.904C349.528 657.285 352.2 659.82 355.515 661.51C358.83 663.2 362.45 664.045 366.374 664.045C371.786 664.045 376.319 662.727 379.972 660.09C383.626 657.386 385.926 653.736 386.873 649.138H391.643C390.561 654.75 387.786 659.313 383.321 662.828C378.856 666.276 373.207 668 366.374 668C361.232 668 356.631 666.85 352.572 664.552C348.513 662.254 345.333 658.975 343.033 654.715C340.733 650.389 339.582 645.352 339.582 639.606C339.582 633.86 340.699 628.856 342.931 624.597C345.231 620.338 348.411 617.093 352.471 614.862C356.53 612.564 361.164 611.414 366.374 611.414C371.651 611.414 376.217 612.564 380.074 614.862C383.997 617.093 386.975 620.101 389.004 623.887C391.034 627.605 392.049 631.629 392.049 635.955ZM387.482 637.679C387.685 632.811 386.806 628.688 384.844 625.307C382.95 621.926 380.344 619.425 377.029 617.803C373.715 616.113 370.129 615.268 366.272 615.268C362.416 615.268 358.83 616.113 355.515 617.803C352.268 619.425 349.595 621.926 347.498 625.307C345.468 628.688 344.386 632.811 344.25 637.679H387.482ZM456.795 667.189H452.228L410.417 603.504V667.189H405.85V596.101H410.417L452.228 659.583V596.101H456.795V667.189ZM497.792 668C492.651 668 488.017 666.85 483.889 664.552C479.763 662.254 476.515 658.975 474.147 654.715C471.847 650.389 470.696 645.352 470.696 639.606C470.696 633.927 471.881 628.958 474.248 624.699C476.617 620.372 479.864 617.093 483.991 614.862C488.186 612.564 492.854 611.414 497.995 611.414C503.138 611.414 507.772 612.564 511.898 614.862C516.026 617.093 519.239 620.338 521.539 624.597C523.908 628.856 525.091 633.86 525.091 639.606C525.091 645.352 523.908 650.389 521.539 654.715C519.172 658.975 515.891 662.254 511.695 664.552C507.569 666.85 502.935 668 497.792 668ZM497.792 663.944C501.784 663.944 505.505 663.065 508.955 661.307C512.474 659.482 515.282 656.744 517.378 653.093C519.477 649.442 520.524 644.946 520.524 639.606C520.524 634.332 519.477 629.87 517.378 626.22C515.282 622.569 512.507 619.865 509.057 618.107C505.607 616.282 501.886 615.369 497.894 615.369C493.903 615.369 490.181 616.282 486.731 618.107C483.349 619.865 480.609 622.569 478.511 626.22C476.414 629.87 475.365 634.332 475.365 639.606C475.365 644.946 476.38 649.442 478.409 653.093C480.507 656.744 483.247 659.482 486.629 661.307C490.08 663.065 493.802 663.944 497.792 663.944ZM611 612.124L593.646 667.189H589.283L571.726 618.411L554.068 667.189H549.704L532.351 612.124H537.121L551.937 662.017L569.595 612.124H573.959L591.515 661.814L606.332 612.124H611Z" fill="#FEFEFE"/>
<path d="M329.098 705H327.867L323.165 688.477C322.774 687.119 322.481 686.006 322.286 685.137C322.13 685.986 321.905 686.963 321.612 688.066C321.329 689.17 319.757 694.814 316.896 705H315.636L309.747 683.584H311.314L315.064 697.383C315.211 697.939 315.348 698.457 315.475 698.936C315.602 699.404 315.714 699.849 315.812 700.269C315.919 700.679 316.012 701.079 316.09 701.47C316.178 701.851 316.256 702.236 316.324 702.627C316.559 701.299 317.057 699.282 317.818 696.577L321.48 683.584H323.136L327.428 698.496C327.926 700.215 328.282 701.602 328.497 702.656C328.624 701.953 328.785 701.206 328.98 700.415C329.186 699.624 330.694 694.014 333.507 683.584H335.016L329.098 705ZM344.874 705.293C342.56 705.293 340.753 704.58 339.454 703.154C338.165 701.729 337.521 699.731 337.521 697.163C337.521 694.624 338.146 692.593 339.396 691.069C340.646 689.536 342.33 688.77 344.449 688.77C346.324 688.77 347.804 689.424 348.888 690.732C349.972 692.041 350.514 693.818 350.514 696.064V697.236H339.044C339.063 699.424 339.571 701.094 340.567 702.246C341.573 703.398 343.009 703.975 344.874 703.975C345.782 703.975 346.578 703.911 347.262 703.784C347.955 703.657 348.829 703.384 349.884 702.964V704.282C348.985 704.673 348.155 704.937 347.394 705.073C346.632 705.22 345.792 705.293 344.874 705.293ZM344.449 690.059C342.916 690.059 341.686 690.566 340.758 691.582C339.83 692.588 339.288 694.043 339.132 695.947H348.976C348.976 694.102 348.575 692.661 347.774 691.626C346.974 690.581 345.865 690.059 344.449 690.059ZM364.576 705L364.21 702.48H364.093C363.292 703.506 362.467 704.233 361.617 704.663C360.777 705.083 359.781 705.293 358.629 705.293C357.066 705.293 355.851 704.893 354.981 704.092C354.112 703.291 353.678 702.183 353.678 700.767C353.678 699.214 354.322 698.008 355.611 697.148C356.91 696.289 358.785 695.835 361.236 695.786L364.269 695.698V694.644C364.269 693.13 363.961 691.987 363.346 691.216C362.73 690.444 361.739 690.059 360.372 690.059C358.897 690.059 357.369 690.469 355.787 691.289L355.245 690.029C356.993 689.209 358.722 688.799 360.431 688.799C362.179 688.799 363.482 689.253 364.342 690.161C365.211 691.069 365.646 692.485 365.646 694.409V705H364.576ZM358.717 703.975C360.416 703.975 361.754 703.491 362.73 702.524C363.717 701.548 364.21 700.195 364.21 698.467V696.899L361.427 697.017C359.19 697.124 357.594 697.476 356.637 698.071C355.689 698.657 355.216 699.575 355.216 700.825C355.216 701.821 355.519 702.598 356.124 703.154C356.739 703.701 357.604 703.975 358.717 703.975ZM375.021 704.004C375.938 704.004 376.739 703.926 377.423 703.77V704.941C376.72 705.176 375.909 705.293 374.991 705.293C373.585 705.293 372.545 704.917 371.871 704.165C371.207 703.413 370.875 702.231 370.875 700.62V690.337H368.517V689.487L370.875 688.828L371.607 685.225H372.354V689.077H377.027V690.337H372.354V700.415C372.354 701.636 372.569 702.539 372.999 703.125C373.429 703.711 374.103 704.004 375.021 704.004ZM391.969 705V694.673C391.969 693.071 391.632 691.909 390.958 691.187C390.284 690.454 389.239 690.088 387.823 690.088C385.919 690.088 384.522 690.571 383.634 691.538C382.755 692.495 382.315 694.053 382.315 696.211V705H380.865V682.207H382.315V689.458L382.242 691.494H382.345C382.94 690.537 383.692 689.844 384.601 689.414C385.509 688.984 386.637 688.77 387.984 688.77C391.598 688.77 393.404 690.708 393.404 694.585V705H391.969ZM404.991 705.293C402.677 705.293 400.87 704.58 399.571 703.154C398.282 701.729 397.638 699.731 397.638 697.163C397.638 694.624 398.263 692.593 399.513 691.069C400.763 689.536 402.447 688.77 404.566 688.77C406.441 688.77 407.921 689.424 409.005 690.732C410.089 692.041 410.631 693.818 410.631 696.064V697.236H399.161C399.181 699.424 399.688 701.094 400.685 702.246C401.69 703.398 403.126 703.975 404.991 703.975C405.899 703.975 406.695 703.911 407.379 703.784C408.072 703.657 408.946 703.384 410.001 702.964V704.282C409.103 704.673 408.272 704.937 407.511 705.073C406.749 705.22 405.909 705.293 404.991 705.293ZM404.566 690.059C403.033 690.059 401.803 690.566 400.875 691.582C399.947 692.588 399.405 694.043 399.249 695.947H409.093C409.093 694.102 408.692 692.661 407.892 691.626C407.091 690.581 405.982 690.059 404.566 690.059ZM421.295 688.77C421.969 688.77 422.691 688.838 423.463 688.975L423.185 690.366C422.521 690.2 421.832 690.117 421.119 690.117C419.762 690.117 418.648 690.693 417.779 691.846C416.91 692.998 416.476 694.453 416.476 696.211V705H415.025V689.077H416.256L416.402 691.948H416.505C417.159 690.776 417.857 689.956 418.6 689.487C419.342 689.009 420.24 688.77 421.295 688.77ZM445.187 697.441H436.485L433.497 705H431.842L440.455 683.496H441.407L449.845 705H448.16L445.187 697.441ZM437.027 696.094H444.688L441.773 688.374C441.529 687.769 441.236 686.929 440.895 685.854C440.631 686.792 440.343 687.642 440.03 688.403L437.027 696.094ZM459.337 705.293C456.886 705.293 455.099 704.375 453.976 702.539H453.873L453.917 703.77C453.956 704.492 453.976 705.283 453.976 706.143V712.207H452.525V689.077H453.756L454.034 691.348H454.122C455.216 689.629 456.964 688.77 459.366 688.77C461.515 688.77 463.15 689.478 464.273 690.894C465.406 692.3 465.973 694.351 465.973 697.046C465.973 699.663 465.377 701.694 464.186 703.14C463.004 704.575 461.388 705.293 459.337 705.293ZM459.308 704.004C460.938 704.004 462.198 703.398 463.087 702.188C463.985 700.977 464.435 699.282 464.435 697.104C464.435 692.427 462.745 690.088 459.366 690.088C457.511 690.088 456.148 690.601 455.279 691.626C454.41 692.642 453.976 694.302 453.976 696.606V697.075C453.976 699.565 454.391 701.343 455.221 702.407C456.061 703.472 457.423 704.004 459.308 704.004ZM477.208 705.293C474.757 705.293 472.97 704.375 471.847 702.539H471.744L471.788 703.77C471.827 704.492 471.847 705.283 471.847 706.143V712.207H470.396V689.077H471.627L471.905 691.348H471.993C473.087 689.629 474.835 688.77 477.237 688.77C479.386 688.77 481.021 689.478 482.145 690.894C483.277 692.3 483.844 694.351 483.844 697.046C483.844 699.663 483.248 701.694 482.057 703.14C480.875 704.575 479.259 705.293 477.208 705.293ZM477.179 704.004C478.81 704.004 480.069 703.398 480.958 702.188C481.856 700.977 482.306 699.282 482.306 697.104C482.306 692.427 480.616 690.088 477.237 690.088C475.382 690.088 474.02 690.601 473.15 691.626C472.281 692.642 471.847 694.302 471.847 696.606V697.075C471.847 699.565 472.262 701.343 473.092 702.407C473.932 703.472 475.294 704.004 477.179 704.004ZM502.55 693.809H508.907V695.01H502.55V701.338H501.349V695.01H495.021V693.809H501.349V687.451H502.55V693.809ZM531.671 697.441H522.97L519.981 705H518.326L526.939 683.496H527.892L536.329 705H534.645L531.671 697.441ZM523.512 696.094H531.173L528.258 688.374C528.014 687.769 527.721 686.929 527.379 685.854C527.115 686.792 526.827 687.642 526.515 688.403L523.512 696.094ZM552.267 689.736C552.267 691.807 551.563 693.394 550.157 694.497C548.751 695.601 546.759 696.152 544.181 696.152H540.87V705H539.376V683.584H544.62C549.718 683.584 552.267 685.635 552.267 689.736ZM540.87 694.863H543.814C546.227 694.863 547.97 694.468 549.044 693.677C550.118 692.876 550.655 691.582 550.655 689.795C550.655 688.145 550.147 686.924 549.132 686.133C548.116 685.332 546.544 684.932 544.415 684.932H540.87V694.863ZM558.009 705H556.559V689.077H558.009V705ZM556.354 684.653C556.354 683.716 556.661 683.247 557.276 683.247C557.579 683.247 557.813 683.369 557.979 683.613C558.155 683.857 558.243 684.204 558.243 684.653C558.243 685.093 558.155 685.439 557.979 685.693C557.813 685.947 557.579 686.074 557.276 686.074C556.661 686.074 556.354 685.601 556.354 684.653Z" fill="white"/>
<path d="M575.743 70H273.257C221.752 70 180 111.752 180 163.257V465.743C180 517.248 221.752 559 273.257 559H575.743C627.248 559 669 517.248 669 465.743V163.257C669 111.752 627.248 70 575.743 70Z" fill="#383838"/>
<path d="M362.715 228.868C352.185 234.063 342.868 241.422 335.375 250.467C327.884 259.508 322.381 270.03 319.234 281.343C305.042 284.622 292.151 292.05 282.194 302.682C269.455 292.259 261.274 277.29 259.379 260.943C258.453 253.614 259.113 246.175 261.322 239.126C263.528 232.078 267.228 225.589 272.172 220.099C277.113 214.611 283.178 210.25 289.957 207.318C296.736 204.385 304.065 202.945 311.451 203.1C321.401 203.163 331.205 205.521 340.097 209.99C348.987 214.458 356.728 220.918 362.715 228.868Z" fill="#636363"/>
<path d="M555.069 322.212C552.944 305.082 544.718 289.294 531.904 277.735C519.087 266.177 502.537 259.622 485.282 259.269C477.307 259.269 469.413 260.866 462.063 263.965C454.579 251.097 443.902 240.376 431.067 232.829C418.235 225.284 403.673 221.172 388.788 220.885C371.861 220.353 355.356 226.238 342.587 237.363C329.818 248.491 321.73 264.034 319.942 280.877C311.887 281.292 304.008 283.367 296.789 286.965C289.574 290.567 283.178 295.616 278.001 301.8C272.824 307.984 268.98 315.17 266.705 322.908C264.431 330.644 263.776 338.768 264.783 346.769C266.888 364.706 275.412 381.271 288.785 393.41C302.155 405.548 319.467 412.435 337.524 412.799H547.551C553.529 412.922 559.466 411.759 564.953 409.383C570.438 407.007 575.349 403.477 579.348 399.029C583.348 394.584 586.343 389.33 588.127 383.624C589.911 377.918 590.447 371.892 589.693 365.962C588.486 356.197 584.618 346.949 578.511 339.234C572.405 331.519 564.296 325.628 555.069 322.212Z" fill="#FEFEFE"/>
<path d="M461.564 261.136C463.41 261.136 464.907 259.639 464.907 257.793C464.907 255.946 463.41 254.45 461.564 254.45C459.717 254.45 458.221 255.946 458.221 257.793C458.221 259.639 459.717 261.136 461.564 261.136Z" fill="#4F4F4F"/>
<path d="M474.937 255.119C476.783 255.119 478.28 253.622 478.28 251.776C478.28 249.93 476.783 248.433 474.937 248.433C473.09 248.433 471.594 249.93 471.594 251.776C471.594 253.622 473.09 255.119 474.937 255.119Z" fill="#4F4F4F"/>
<path d="M488.979 251.774C490.825 251.774 492.322 250.278 492.322 248.431C492.322 246.585 490.825 245.088 488.979 245.088C487.132 245.088 485.636 246.585 485.636 248.431C485.636 250.278 487.132 251.774 488.979 251.774Z" fill="#4F4F4F"/>
<path d="M503.018 255.119C504.864 255.119 506.361 253.622 506.361 251.776C506.361 249.93 504.864 248.433 503.018 248.433C501.172 248.433 499.675 249.93 499.675 251.776C499.675 253.622 501.172 255.119 503.018 255.119Z" fill="#4F4F4F"/>
<path d="M514.385 263.141C516.231 263.141 517.728 261.645 517.728 259.798C517.728 257.952 516.231 256.455 514.385 256.455C512.539 256.455 511.042 257.952 511.042 259.798C511.042 261.645 512.539 263.141 514.385 263.141Z" fill="#4F4F4F"/>
<path d="M523.077 272.503C524.924 272.503 526.421 271.006 526.421 269.16C526.421 267.314 524.924 265.817 523.077 265.817C521.231 265.817 519.734 267.314 519.734 269.16C519.734 271.006 521.231 272.503 523.077 272.503Z" fill="#4F4F4F"/>
<path d="M527.758 285.206C529.604 285.206 531.101 283.71 531.101 281.863C531.101 280.017 529.604 278.52 527.758 278.52C525.912 278.52 524.415 280.017 524.415 281.863C524.415 283.71 525.912 285.206 527.758 285.206Z" fill="#4F4F4F"/>
<path d="M529.763 298.579C531.609 298.579 533.106 297.082 533.106 295.236C533.106 293.39 531.609 291.893 529.763 291.893C527.917 291.893 526.42 293.39 526.42 295.236C526.42 297.082 527.917 298.579 529.763 298.579Z" fill="#4F4F4F"/>
<path d="M526.422 311.952C528.268 311.952 529.765 310.455 529.765 308.609C529.765 306.762 528.268 305.266 526.422 305.266C524.576 305.266 523.079 306.762 523.079 308.609C523.079 310.455 524.576 311.952 526.422 311.952Z" fill="#4F4F4F"/>
<path d="M521.072 322.649C522.918 322.649 524.415 321.153 524.415 319.306C524.415 317.46 522.918 315.963 521.072 315.963C519.225 315.963 517.729 317.46 517.729 319.306C517.729 321.153 519.225 322.649 521.072 322.649Z" fill="#4F4F4F"/>
<path d="M524.413 335.353C526.26 335.353 527.756 333.856 527.756 332.01C527.756 330.163 526.26 328.667 524.413 328.667C522.567 328.667 521.07 330.163 521.07 332.01C521.07 333.856 522.567 335.353 524.413 335.353Z" fill="#4F4F4F"/>
<path d="M534.445 342.039C536.291 342.039 537.788 340.542 537.788 338.696C537.788 336.85 536.291 335.353 534.445 335.353C532.598 335.353 531.102 336.85 531.102 338.696C531.102 340.542 532.598 342.039 534.445 342.039Z" fill="#4F4F4F"/>
<path d="M546.478 338.028C548.324 338.028 549.821 336.531 549.821 334.685C549.821 332.838 548.324 331.342 546.478 331.342C544.632 331.342 543.135 332.838 543.135 334.685C543.135 336.531 544.632 338.028 546.478 338.028Z" fill="#4F4F4F"/>
<path d="M555.051 327.949C556.897 327.949 558.394 326.452 558.394 324.606C558.394 322.759 556.897 321.263 555.051 321.263C553.205 321.263 551.708 322.759 551.708 324.606C551.708 326.452 553.205 327.949 555.051 327.949Z" fill="#4F4F4F"/>
<path d="M298.83 345.261C300.677 345.261 302.173 343.764 302.173 341.918C302.173 340.072 300.677 338.575 298.83 338.575C296.984 338.575 295.487 340.072 295.487 341.918C295.487 343.764 296.984 345.261 298.83 345.261Z" fill="#4F4F4F"/>
<path d="M291.908 338.336C293.754 338.336 295.251 336.839 295.251 334.993C295.251 333.146 293.754 331.65 291.908 331.65C290.061 331.65 288.564 333.146 288.564 334.993C288.564 336.839 290.061 338.336 291.908 338.336Z" fill="#4F4F4F"/>
<path d="M281.519 334.874C283.365 334.874 284.862 333.378 284.862 331.531C284.862 329.685 283.365 328.188 281.519 328.188C279.673 328.188 278.176 329.685 278.176 331.531C278.176 333.378 279.673 334.874 281.519 334.874Z" fill="#4F4F4F"/>
<path d="M271.131 338.336C272.977 338.336 274.474 336.839 274.474 334.993C274.474 333.146 272.977 331.65 271.131 331.65C269.285 331.65 267.788 333.146 267.788 334.993C267.788 336.839 269.285 338.336 271.131 338.336Z" fill="#4F4F4F"/>
<path d="M298.83 393.737C300.677 393.737 302.173 392.24 302.173 390.394C302.173 388.547 300.677 387.051 298.83 387.051C296.984 387.051 295.487 388.547 295.487 390.394C295.487 392.24 296.984 393.737 298.83 393.737Z" fill="#4F4F4F"/>
<path d="M305.756 386.811C307.602 386.811 309.099 385.314 309.099 383.468C309.099 381.622 307.602 380.125 305.756 380.125C303.91 380.125 302.413 381.622 302.413 383.468C302.413 385.314 303.91 386.811 305.756 386.811Z" fill="#4F4F4F"/>
<path d="M309.217 376.424C311.063 376.424 312.56 374.928 312.56 373.081C312.56 371.235 311.063 369.738 309.217 369.738C307.371 369.738 305.874 371.235 305.874 373.081C305.874 374.928 307.371 376.424 309.217 376.424Z" fill="#4F4F4F"/>
<path d="M309.217 366.035C311.063 366.035 312.56 364.538 312.56 362.692C312.56 360.845 311.063 359.349 309.217 359.349C307.371 359.349 305.874 360.845 305.874 362.692C305.874 364.538 307.371 366.035 309.217 366.035Z" fill="#4F4F4F"/>
<path d="M305.756 355.648C307.602 355.648 309.099 354.151 309.099 352.305C309.099 350.459 307.602 348.962 305.756 348.962C303.91 348.962 302.413 350.459 302.413 352.305C302.413 354.151 303.91 355.648 305.756 355.648Z" fill="#4F4F4F"/>
<path d="M434.893 317.755C444.508 308.495 457.37 303.381 470.719 303.506C484.065 303.632 496.828 308.988 506.267 318.425C515.706 327.861 521.068 340.624 521.197 353.973C521.325 367.319 516.214 380.183 506.96 389.802L470.937 425.828L434.893 389.784C425.346 380.231 419.983 367.277 419.983 353.769C419.983 340.262 425.346 327.308 434.893 317.755ZM470.931 377.463C475.612 377.463 480.185 376.076 484.076 373.476C487.968 370.875 491.002 367.181 492.792 362.856C494.583 358.534 495.049 353.775 494.137 349.187C493.223 344.596 490.969 340.379 487.66 337.073C484.351 333.764 480.134 331.51 475.543 330.599C470.955 329.684 466.196 330.153 461.874 331.947C457.549 333.737 453.855 336.771 451.257 340.663C448.657 344.554 447.27 349.13 447.273 353.808C447.285 360.076 449.784 366.081 454.219 370.508C458.655 374.934 464.666 377.421 470.931 377.421V377.463Z" fill="#636363"/>
</svg>
