<svg width="24" height="16" viewBox="0 0 24 16" fill="none" xmlns="http://www.w3.org/2000/svg">
<path d="M12 14.6667C12 15.403 11.403 16 10.6667 16H1.33333C0.596954 16 0 15.403 0 14.6667V14.6667C0 13.9303 0.596954 13.3333 1.33333 13.3333H10.6667C11.403 13.3333 12 13.9303 12 14.6667V14.6667ZM24 8C24 8.73638 23.403 9.33333 22.6667 9.33333H1.33333C0.596954 9.33333 0 8.73638 0 8V8C0 7.26362 0.596954 6.66667 1.33333 6.66667H22.6667C23.403 6.66667 24 7.26362 24 8V8ZM24 1.33333C24 2.06971 23.403 2.66667 22.6667 2.66667H13.3333C12.597 2.66667 12 2.06971 12 1.33333V1.33333C12 0.596954 12.597 0 13.3333 0H22.6667C23.403 0 24 0.596954 24 1.33333V1.33333Z" fill="white"/>
</svg>
