<svg width="113" height="113" viewBox="0 0 113 113" fill="none" xmlns="http://www.w3.org/2000/svg">
<path d="M41.1609 40.8772C36.1083 45.1705 34.2567 53.0003 38.6195 59.2818C42.7022 65.1598 47.8449 70.3015 53.7216 74.3823C60.0033 78.7443 67.8328 76.8921 72.1256 71.8393L72.1734 71.8614C77.6566 74.4014 83.4806 76.1424 89.4583 77.0296V89.4583L89.4532 89.4582L89.4398 89.4583C51.893 89.5115 23.5015 60.7899 23.5417 23.5586V23.5417H35.9687L35.9695 23.5472C36.8568 29.5243 38.5971 35.3433 41.1373 40.8263L41.1609 40.8772ZM89.4532 98.8749H94.1667C96.767 98.8749 98.875 96.7669 98.875 94.1666V72.9684C98.875 70.635 97.166 68.6536 94.8579 68.3111L90.8361 67.7143C85.7495 66.9594 80.7975 65.4784 76.1314 63.317L72.5867 61.6749C70.5326 60.7234 68.0921 61.3684 66.7763 63.2106L65.1716 65.4573C63.7652 67.4263 61.0802 68.0277 59.0926 66.6476C54.1381 63.2071 49.7957 58.8656 46.3536 53.9099C44.9731 51.9223 45.5746 49.2368 47.544 47.8304L49.7896 46.2267C51.632 44.911 52.2771 42.4702 51.3254 40.4159L49.6816 36.8678C47.52 32.2022 46.0392 27.2506 45.2841 22.1644L44.687 18.142C44.3443 15.8339 42.363 14.125 40.0297 14.125H18.8334C16.233 14.125 14.125 16.233 14.125 18.8333V23.5484C14.0793 65.9537 46.6607 98.9356 89.4532 98.8749Z" fill="#D9D932"/>
</svg>
