<svg width="29" height="29" viewBox="0 0 29 29" fill="none" xmlns="http://www.w3.org/2000/svg">
<path d="M22.5685 23.6916L15.6628 16.7847C12.5909 18.9688 8.35779 18.4345 5.92473 15.5558C3.49167 12.677 3.67032 8.41412 6.33572 5.74904C9.0004 3.08278 13.2637 2.90336 16.143 5.33629C19.0223 7.76922 19.5568 12.0027 17.3726 15.075L24.2783 21.9818L22.5697 23.6904L22.5685 23.6916ZM11.4615 6.04143C9.17011 6.04092 7.19326 7.64935 6.72779 9.89294C6.26232 12.1365 7.43616 14.3986 9.53862 15.3097C11.6411 16.2207 14.0943 15.5303 15.413 13.6564C16.7317 11.7826 16.5535 9.24029 14.9862 7.56879L15.7172 8.29379L14.8931 7.47212L14.8786 7.45762C13.9745 6.54796 12.744 6.03798 11.4615 6.04143Z" fill="#F2F2F2"/>
</svg>
