<svg width="47" height="47" viewBox="0 0 47 47" fill="none" xmlns="http://www.w3.org/2000/svg">
<path d="M23.5 43.0832C20.5391 43.0915 17.6156 42.4216 14.9538 41.1248C13.9796 40.651 13.0463 40.0975 12.1632 39.47L11.8949 39.2742C9.46621 37.4816 7.48057 35.1563 6.0904 32.4768C4.65247 29.7036 3.90668 26.6237 3.91655 23.4998C3.91655 12.6843 12.6844 3.9165 23.5 3.9165C34.3156 3.9165 43.0834 12.6843 43.0834 23.4998C43.0932 26.6222 42.3481 29.7007 40.9115 32.4729C39.5233 35.1508 37.5404 37.4753 35.1149 39.2683C34.1999 39.9381 33.2288 40.5278 32.2126 41.0308L32.0559 41.1092C29.3925 42.4128 26.4654 43.0882 23.5 43.0832ZM23.5 33.2915C20.5654 33.2858 17.875 34.9248 16.5342 37.5352C20.9236 39.7093 26.0764 39.7093 30.4658 37.5352V37.5254C29.1233 34.9179 26.4328 33.2825 23.5 33.2915ZM23.5 29.3748C27.742 29.3804 31.6533 31.6663 33.7401 35.3595L33.7695 35.334L33.7969 35.3105L33.7636 35.3399L33.744 35.3556C38.6966 31.0768 40.4676 24.1702 38.1848 18.0363C35.9021 11.9023 30.0469 7.83379 23.5019 7.83379C16.957 7.83379 11.1018 11.9023 8.81905 18.0363C6.53633 24.1702 8.30724 31.0768 13.2599 35.3556C15.348 31.6642 19.2589 29.38 23.5 29.3748ZM23.5 27.4165C19.1738 27.4165 15.6667 23.9094 15.6667 19.5832C15.6667 15.2569 19.1738 11.7498 23.5 11.7498C27.8262 11.7498 31.3333 15.2569 31.3333 19.5832C31.3333 21.6607 30.508 23.6531 29.039 25.1222C27.57 26.5912 25.5775 27.4165 23.5 27.4165ZM23.5 15.6665C21.3369 15.6665 19.5833 17.4201 19.5833 19.5832C19.5833 21.7463 21.3369 23.4998 23.5 23.4998C25.6631 23.4998 27.4167 21.7463 27.4167 19.5832C27.4167 17.4201 25.6631 15.6665 23.5 15.6665Z" fill="#FCCB0C"/>
</svg>
