<svg width="43" height="43" viewBox="0 0 43 43" fill="none" xmlns="http://www.w3.org/2000/svg">
<path d="M21.375 42.8355C15.5325 42.8355 14.8438 42.8046 12.5638 42.7049C10.7858 42.6464 9.03078 42.285 7.37437 41.6361C4.50849 40.5208 2.24233 38.2538 1.12812 35.3875C0.504227 33.7251 0.167717 31.9687 0.133 30.1934C0 27.9181 0 27.1724 0 21.375C0 15.5159 0.030875 14.8319 0.133 12.5638C0.168477 10.7909 0.504975 9.03689 1.12812 7.37675C2.24112 4.50663 4.51096 2.23766 7.3815 1.12575C9.04078 0.499231 10.7952 0.161843 12.5685 0.12825C14.8366 0 15.5824 0 21.375 0C27.265 0 27.9419 0.030875 30.1863 0.12825C31.9642 0.162133 33.7232 0.499485 35.3875 1.12575C38.2572 2.23892 40.5266 4.50745 41.6409 7.37675C42.2753 9.06109 42.6136 10.8425 42.6407 12.6421C42.7737 14.9174 42.7738 15.6608 42.7738 21.4558C42.7738 27.2508 42.7405 28.0107 42.6407 30.2599C42.6054 32.0369 42.2681 33.7949 41.6432 35.4588C40.5262 38.327 38.2566 40.5949 35.3875 41.7098C33.7256 42.3325 31.9701 42.6689 30.1958 42.7049C27.9276 42.8355 27.1842 42.8355 21.375 42.8355ZM21.2943 3.75963C15.485 3.75963 14.8818 3.78813 12.6136 3.89025C11.2598 3.90819 9.91914 4.15801 8.64975 4.62887C6.77529 5.34615 5.29204 6.82336 4.56712 8.69487C4.09263 9.97808 3.84277 11.3334 3.8285 12.7015C3.70263 15.0029 3.70263 15.6061 3.70263 21.375C3.70263 27.075 3.724 27.7661 3.8285 30.0533C3.84976 31.4075 4.09948 32.7484 4.56712 34.0195C5.29311 35.8898 6.7761 37.3659 8.64975 38.0831C9.91827 38.5571 11.2595 38.807 12.6136 38.8218C14.9126 38.9548 15.5183 38.9548 21.2943 38.9548C27.1201 38.9548 27.7234 38.9263 29.9725 38.8218C31.3272 38.8053 32.6689 38.5554 33.9388 38.0831C35.8019 37.3597 37.2754 35.8869 38 34.0243C38.4736 32.74 38.7234 31.384 38.7386 30.0152H38.7647C38.8669 27.7447 38.8669 27.1391 38.8669 21.337C38.8669 15.5349 38.8407 14.9245 38.7386 12.6564C38.7173 11.3037 38.4676 9.96434 38 8.69487C37.2771 6.82949 35.8033 5.35394 33.9388 4.62887C32.6692 4.15564 31.3273 3.90574 29.9725 3.89025C27.6759 3.75962 27.075 3.75963 21.2943 3.75963ZM21.375 32.3451C16.9337 32.348 12.9281 29.675 11.2263 25.5727C9.52448 21.4704 10.4617 16.7469 13.6007 13.6051C16.7398 10.4633 21.4625 9.52202 25.5663 11.2203C29.6701 12.9186 32.3465 16.9218 32.3475 21.3631C32.341 27.4219 27.4338 32.3333 21.375 32.3451ZM21.375 14.2334C17.44 14.2334 14.25 17.4233 14.25 21.3584C14.25 25.2934 17.44 28.4834 21.375 28.4834C25.31 28.4834 28.5 25.2934 28.5 21.3584C28.4909 17.4271 25.3062 14.2425 21.375 14.2334ZM32.775 12.54C31.3629 12.5348 30.2216 11.3871 30.2243 9.97502C30.2269 8.56289 31.3724 7.41952 32.7845 7.41952C34.1966 7.41952 35.3421 8.56287 35.3448 9.975C35.3454 10.6563 35.0747 11.3098 34.5925 11.7911C34.1103 12.2724 33.4563 12.5419 32.775 12.54Z" fill="#E0E0E0"/>
</svg>
