<svg width="44" height="43" viewBox="0 0 44 43" fill="none" xmlns="http://www.w3.org/2000/svg">
<path d="M24.1667 42.9404H14.5V14.4404H24.1667V19.1904C26.2272 16.6142 29.3519 15.0783 32.6854 15.0033C38.6802 15.036 43.5174 19.8302 43.5 25.7217V42.9404H33.8333V26.9092C33.4467 24.2554 31.1309 22.2864 28.4031 22.2922C27.2099 22.3292 26.0837 22.8426 25.2842 23.7139C24.4848 24.5852 24.0812 25.739 24.1667 26.9092V42.9404ZM9.66667 42.9404H0V14.4404H9.66667V42.9404ZM4.83333 9.69043C2.16396 9.69043 0 7.56378 0 4.94043C0 2.31708 2.16396 0.19043 4.83333 0.19043C7.50271 0.19043 9.66667 2.31708 9.66667 4.94043C9.66667 6.20021 9.15744 7.40839 8.25102 8.29919C7.34459 9.18999 6.11521 9.69043 4.83333 9.69043Z" fill="#E0E0E0"/>
</svg>
