<svg width="51" height="42" viewBox="0 0 51 42" fill="none" xmlns="http://www.w3.org/2000/svg">
<path d="M44.5972 7.19855C46.7635 5.92576 48.3845 3.92161 49.1574 1.5603C47.1217 2.74733 44.8945 3.58351 42.572 4.03267C39.352 0.685176 34.2502 -0.129453 30.1175 2.04398C25.9847 4.21742 23.844 8.84084 24.8917 13.3308C16.5532 12.9194 8.7845 9.04847 3.51867 2.6813C0.770529 7.33967 2.17489 13.2947 6.728 16.29C5.08155 16.238 3.47161 15.7999 2.03242 15.0123C2.03242 15.055 2.03242 15.0978 2.03242 15.1405C2.03337 19.993 5.51332 24.1729 10.353 25.1345C8.82582 25.5429 7.22392 25.603 5.6695 25.3103C7.03057 29.4601 10.9222 32.303 15.3579 32.3878C11.6842 35.2215 7.14723 36.7582 2.47708 36.7507C1.6493 36.7518 0.822175 36.7051 0 36.6105C4.74244 39.6055 10.2621 41.1951 15.8992 41.1895C23.7419 41.2425 31.279 38.2039 36.8245 32.7536C42.37 27.3032 45.4613 19.8959 45.4067 12.1884C45.4067 11.7467 45.3963 11.3073 45.3753 10.8703C47.4064 9.42773 49.1594 7.64065 50.5518 5.59305C48.6596 6.41732 46.6525 6.95849 44.5972 7.19855Z" fill="#E0E0E0"/>
</svg>
